<?xml version="1.0" standalone="no"?>
<!DOCTYPE svg PUBLIC "-//W3C//DTD SVG 20010904//EN"
 "http://www.w3.org/TR/2001/REC-SVG-20010904/DTD/svg10.dtd">
<svg version="1.0" xmlns="http://www.w3.org/2000/svg"
 width="320.000000pt" height="320.000000pt" viewBox="0 0 320.000000 320.000000"
 preserveAspectRatio="xMidYMid meet">
<metadata>
Created by potrace 1.11, written by Peter Selinger 2001-2013
</metadata>
<g transform="translate(0.000000,320.000000) scale(0.100000,-0.100000)"
fill="#000000" stroke="none">
<path d="M1415 2759 c-153 -22 -335 -93 -475 -185 -102 -66 -254 -220 -325
-327 -259 -394 -259 -900 0 -1294 71 -107 223 -261 325 -327 249 -164 536
-227 820 -181 474 77 856 443 955 916 8 39 15 84 15 100 0 16 3 29 6 29 3 0
41 -33 85 -72 44 -40 84 -74 90 -76 5 -2 9 96 9 253 0 157 -4 255 -9 253 -6
-1 -46 -36 -91 -76 -50 -46 -82 -69 -84 -60 -3 7 -7 36 -10 64 -25 212 -147
460 -310 631 -256 270 -638 404 -1001 352z m340 -141 c372 -57 700 -353 809
-730 109 -379 -5 -784 -296 -1053 -389 -358 -987 -358 -1376 0 -449 414 -449
1116 0 1530 235 216 532 304 863 253z"/>
</g>
</svg>
